<svg class="diagram-root" style="background: #f5f6f6" xmlns="http://www.w3.org/2000/svg" xmlns:xlink="http://www.w3.org/1999/xlink"><style>.diagram-root { font-family: "Helvetica Neue", sans-serif; font-size: 12px; } .t { overflow: visible; } .t-bg { y: 40; fill: #fff;   } .th { fill: #005aa0;   } .tht { fill: #fff; font-size: 14px;  } .tf { fill: #323c46; overflow: visible; } .tf.pk { fill: #005aa0; font-weight: bold; } .tf.fk { font-weight: bold; } .ty { fill: #adb1b5; font-weight: normal; text-anchor: end; } .r { fill: transparent; stroke: #c3c3c3; stroke-width: 1; } .l { stroke: 1; } .i { fill: #c2c7ce; stroke: #c2c7ce; } .i.ix { fill: #afb3b6; stroke: #000; } .fa { fill: transparent; overflow: visible; } .fa .bg.hover { fill: #f7f7f7; } .c { cy: 12; r: 4; stroke: #d2d2dc; fill: #d2d2dc; } .hr { fill: transparent; stroke: #323c46; stroke-opacity: 0.035; stroke-width: 13; } .dc { stroke: #fa5a3c; fill: #fa5a3c; } .x { stroke: white; stroke-width: 1; } .hl .th { fill: #1b9bff; } .hl .tht {  } .fhl .bg { fill: #e7f4ff; } .fhls .bg {  } .r.hl { stroke: #1b9bff; } .dim { opacity: 0.25; }</style><g class="drawing-wrapper" transform="translate(-6, 11) scale(1,1)"><g class="rs"><path d="M 186.33 378 m -1, 0 a 1,1 0 1,0 2,0 a 1,1 0 1,0 -2,0 M 186.33 378 m -0.5, 0 a 0.5,0.5 0 1,0 1,0 a 0.5,0.5 0 1,0 -1,0  M186.33 378 L186.33 378 198.33 378 M192.33 384 L192.33 384 192.33 372 M198.33 378 C 248.33 378, 250.13000000000002 610, 195.33 610 M 183.33 610 m -1, 0 a 1,1 0 1,0 2,0 a 1,1 0 1,0 -2,0 M 183.33 610 m -0.5, 0 a 0.5,0.5 0 1,0 1,0 a 0.5,0.5 0 1,0 -1,0  M183.33 610 L183.33 610 195.33 610 M189.33 616 L189.33 616 189.33 604" id="h4211502388" class="r"></path><path d="M 170 76 m -1, 0 a 1,1 0 1,0 2,0 a 1,1 0 1,0 -2,0 M 170 76 m -0.5, 0 a 0.5,0.5 0 1,0 1,0 a 0.5,0.5 0 1,0 -1,0  M170 76 L170 76 182 76 M176 82 L176 82 176 70 M182 76 C 258.12800000000004 76, 248.33 353, 198.33 353 M 186.33 353 m -1, 0 a 1,1 0 1,0 2,0 a 1,1 0 1,0 -2,0 M 186.33 353 m -0.5, 0 a 0.5,0.5 0 1,0 1,0 a 0.5,0.5 0 1,0 -1,0  M186.33 353 L186.33 353 198.33 353 M192.33 359 L192.33 359 192.33 347" id="h170840122" class="r"></path><path d="M 259.33 731 m -1, 0 a 1,1 0 1,0 2,0 a 1,1 0 1,0 -2,0 M 259.33 731 m -0.5, 0 a 0.5,0.5 0 1,0 1,0 a 0.5,0.5 0 1,0 -1,0  M259.33 731 L259.33 731 271.33 731 M265.33 737 L265.33 737 265.33 725 M271.33 731 C 321.33 731, 366.92999999999995 585, 195.33 585 M 183.33 585 m -1, 0 a 1,1 0 1,0 2,0 a 1,1 0 1,0 -2,0 M 183.33 585 m -0.5, 0 a 0.5,0.5 0 1,0 1,0 a 0.5,0.5 0 1,0 -1,0  M183.33 585 L183.33 585 195.33 585 M189.33 591 L189.33 591 189.33 579" id="h2313173008" class="r"></path><path d="M 370 471 m -1, 0 a 1,1 0 1,0 2,0 a 1,1 0 1,0 -2,0 M 370 471 m -0.5, 0 a 0.5,0.5 0 1,0 1,0 a 0.5,0.5 0 1,0 -1,0  M370 471 L370 471 358 471 M364 477 L364 477 364 465 M358 471 Q 314 471, 270 273.5 T 182 76 M 170 76 m -1, 0 a 1,1 0 1,0 2,0 a 1,1 0 1,0 -2,0 M 170 76 m -0.5, 0 a 0.5,0.5 0 1,0 1,0 a 0.5,0.5 0 1,0 -1,0  M170 76 L170 76 182 76 M176 82 L176 82 176 70" id="h2967012690" class="r"></path><path d="M 374 303 m -1, 0 a 1,1 0 1,0 2,0 a 1,1 0 1,0 -2,0 M 374 303 m -0.5, 0 a 0.5,0.5 0 1,0 1,0 a 0.5,0.5 0 1,0 -1,0  M374 303 L374 303 362 303 M368 309 L368 309 368 297 M362 303 Q 317 303, 272 189.5 T 182 76 M 170 76 m -1, 0 a 1,1 0 1,0 2,0 a 1,1 0 1,0 -2,0 M 170 76 m -0.5, 0 a 0.5,0.5 0 1,0 1,0 a 0.5,0.5 0 1,0 -1,0  M170 76 L170 76 182 76 M176 82 L176 82 176 70" id="h1720119466" class="r"></path></g><g class="hrs"></g><g class="ts"><svg width="142" height="200" x="28" y="19" id="h3299212598" class="t"><rect height="40" width="142" class="th"></rect><text x="13" y="25" class="tht">Employees</text><rect height="160" width="142" class="t-bg" y="40"></rect><text x="13" y="61" class="tf pk">emp_no<tspan x="129" class="ty">int</tspan></text><path d="M7,14A2,2 0 0,1 5,12A2,2 0 0,1 7,10A2,2 0 0,1 9,12A2,2 0 0,1 7,14M12.65,10C11.83,7.67 9.61,6 7, 6A6, 6 0 0, 0 1, 12A6, 6 0 0, 0 7, 18C9.61, 18 11.83, 16.33 12.65, 14H17V18H21V14H23V10H12.65Z" class="i pk" transform="translate(96.3333330154419, 48) scale(0.65)"></path><text x="13" y="86" class="tf">birth_date<tspan x="129" class="ty">date</tspan></text><text x="13" y="111" class="tf">first_name<tspan x="129" class="ty">varchar</tspan></text><text x="13" y="136" class="tf">last_name<tspan x="129" class="ty">varchar</tspan></text><text x="13" y="161" class="tf">gender<tspan x="129" class="ty">varchar</tspan></text><text x="13" y="186" class="tf">hire_date<tspan x="129" class="ty">date</tspan></text></svg><svg width="149.33" height="100" x="34" y="528" id="h2876837712" class="t"><rect height="40" width="149.33" class="th"></rect><text x="13" y="25" class="tht">Department</text><rect height="60" width="149.33" class="t-bg" y="40"></rect><text x="13" y="61" class="tf pk">dept_no<tspan x="136.33" class="ty">varchar</tspan></text><path d="M7,14A2,2 0 0,1 5,12A2,2 0 0,1 7,10A2,2 0 0,1 9,12A2,2 0 0,1 7,14M12.65,10C11.83,7.67 9.61,6 7, 6A6, 6 0 0, 0 1, 12A6, 6 0 0, 0 7, 18C9.61, 18 11.83, 16.33 12.65, 14H17V18H21V14H23V10H12.65Z" class="i pk" transform="translate(76.33000000000001, 48) scale(0.65)"></path><text x="13" y="86" class="tf fk">dept_name<tspan x="136.33" class="ty">varchar</tspan></text></svg><svg width="129.33" height="150" x="57" y="296" id="h1090417462" class="t"><rect height="40" width="129.33" class="th"></rect><text x="13" y="25" class="tht">dept_emp</text><rect height="110" width="129.33" class="t-bg" y="40"></rect><text x="13" y="61" class="tf pk">emp_no<tspan x="116.33000000000001" class="ty">int</tspan></text><path d="M7,14A2,2 0 0,1 5,12A2,2 0 0,1 7,10A2,2 0 0,1 9,12A2,2 0 0,1 7,14M12.65,10C11.83,7.67 9.61,6 7, 6A6, 6 0 0, 0 1, 12A6, 6 0 0, 0 7, 18C9.61, 18 11.83, 16.33 12.65, 14H17V18H21V14H23V10H12.65Z" class="i pk" transform="translate(83.6633330154419, 48) scale(0.65)"></path><text x="13" y="86" class="tf fk">dept_no<tspan x="116.33000000000001" class="ty">varchar</tspan></text><text x="13" y="111" class="tf">from_date<tspan x="116.33000000000001" class="ty">date</tspan></text><text x="13" y="136" class="tf">to_date<tspan x="116.33000000000001" class="ty">date</tspan></text></svg><svg width="149.33" height="150" x="110" y="674" id="h1676682957" class="t"><rect height="40" width="149.33" class="th"></rect><text x="13" y="25" class="tht">dept_manager</text><rect height="110" width="149.33" class="t-bg" y="40"></rect><text x="13" y="61" class="tf pk">dept_no<tspan x="136.33" class="ty">varchar</tspan></text><path d="M7,14A2,2 0 0,1 5,12A2,2 0 0,1 7,10A2,2 0 0,1 9,12A2,2 0 0,1 7,14M12.65,10C11.83,7.67 9.61,6 7, 6A6, 6 0 0, 0 1, 12A6, 6 0 0, 0 7, 18C9.61, 18 11.83, 16.33 12.65, 14H17V18H21V14H23V10H12.65Z" class="i pk" transform="translate(76.33000000000001, 48) scale(0.65)"></path><text x="13" y="86" class="tf fk">emp_no<tspan x="136.33" class="ty">int</tspan></text><text x="13" y="111" class="tf">from_date<tspan x="136.33" class="ty">date</tspan></text><text x="13" y="136" class="tf">to_date<tspan x="136.33" class="ty">date</tspan></text></svg><svg width="123.33" height="150" x="370" y="414" id="h2472833127" class="t"><rect height="40" width="123.33" class="th"></rect><text x="13" y="25" class="tht">salaries</text><rect height="110" width="123.33" class="t-bg" y="40"></rect><text x="13" y="61" class="tf pk">emp_no<tspan x="110.33" class="ty">int</tspan></text><path d="M7,14A2,2 0 0,1 5,12A2,2 0 0,1 7,10A2,2 0 0,1 9,12A2,2 0 0,1 7,14M12.65,10C11.83,7.67 9.61,6 7, 6A6, 6 0 0, 0 1, 12A6, 6 0 0, 0 7, 18C9.61, 18 11.83, 16.33 12.65, 14H17V18H21V14H23V10H12.65Z" class="i pk" transform="translate(77.66333301544189, 48) scale(0.65)"></path><text x="13" y="86" class="tf">salary<tspan x="110.33" class="ty">int</tspan></text><text x="13" y="111" class="tf">from_date<tspan x="110.33" class="ty">date</tspan></text><text x="13" y="136" class="tf">to_date<tspan x="110.33" class="ty">date</tspan></text></svg><svg width="123.33" height="150" x="374" y="246" id="h311790747" class="t"><rect height="40" width="123.33" class="th"></rect><text x="13" y="25" class="tht">titles</text><rect height="110" width="123.33" class="t-bg" y="40"></rect><text x="13" y="61" class="tf fk">emp_no<tspan x="110.33" class="ty">int</tspan></text><text x="13" y="86" class="tf">title<tspan x="110.33" class="ty">varchar</tspan></text><text x="13" y="111" class="tf">from_date<tspan x="110.33" class="ty">date</tspan></text><text x="13" y="136" class="tf">to_date<tspan x="110.33" class="ty">date</tspan></text></svg></g></g><text class="qdbd-link" x="10" y="20">www.quickdatabasediagrams.com</text></svg>